<?xml version="1.0" standalone="no"?>
<!DOCTYPE svg PUBLIC "-//W3C//DTD SVG 20010904//EN"
 "http://www.w3.org/TR/2001/REC-SVG-20010904/DTD/svg10.dtd">
<svg version="1.0" xmlns="http://www.w3.org/2000/svg"
 width="3000.000000pt" height="3000.000000pt" viewBox="0 0 3000.000000 3000.000000"
 preserveAspectRatio="xMidYMid meet">
<metadata>
Created by potrace 1.11, written by Peter Selinger 2001-2013
</metadata>
<g transform="translate(0.000000,3000.000000) scale(0.100000,-0.100000)"
fill="#000000" stroke="none">
<path d="M14280 29754 c-493 -26 -707 -42 -1085 -85 -3715 -414 -7152 -2234
-9603 -5084 -1367 -1590 -2380 -3441 -2978 -5441 -30 -103 -54 -187 -52 -189
3 -2 181 70 827 337 l173 71 546 425 c300 233 677 521 838 639 l293 214 148
167 c81 91 153 172 158 179 7 9 71 20 190 34 136 15 184 24 197 37 9 9 226
262 483 562 444 519 477 560 702 880 130 184 237 336 239 338 2 3 498 42 540
42 13 0 110 73 240 180 l219 179 303 162 303 161 440 -20 c243 -11 442 -22
443 -24 2 -2 74 -92 160 -200 154 -192 158 -197 184 -187 22 9 278 102 384
141 22 8 99 133 428 691 l401 682 519 718 519 718 703 462 703 463 885 669
c487 368 896 674 910 680 14 7 209 38 433 70 l408 57 659 360 660 360 248 -57
c136 -31 256 -60 267 -64 11 -5 224 -151 474 -325 421 -293 500 -343 1095
-697 l641 -381 395 -476 395 -475 500 -420 c275 -232 507 -420 515 -419 18 1
1141 350 1147 355 2 2 21 55 42 118 25 73 43 113 51 111 7 -2 254 -137 549
-301 452 -252 630 -358 1136 -678 594 -376 605 -382 1095 -637 l495 -257 518
-738 518 -739 142 -61 143 -62 425 -427 c424 -425 429 -430 979 -1077 304
-357 561 -660 572 -671 16 -18 23 -57 40 -220 11 -110 21 -200 22 -201 4 -4
528 -84 531 -81 4 4 -98 258 -180 448 -168 394 -436 937 -658 1335 -1353 2433
-3359 4439 -5792 5792 -1711 952 -3602 1557 -5540 1772 -636 71 -855 83 -1590
86 -346 1 -659 1 -695 -1z"/>
<path d="M4019 20400 c-258 -41 -446 -227 -514 -510 -26 -105 -31 -319 -11
-420 45 -221 181 -447 437 -729 380 -416 505 -603 575 -859 9 -31 18 -111 21
-177 8 -192 -29 -310 -126 -397 -66 -60 -134 -81 -244 -77 -104 5 -172 36
-263 122 -162 151 -281 421 -325 735 l-13 92 -33 0 -33 0 0 -495 0 -495 34 0
c31 0 34 2 40 41 13 78 47 119 112 133 25 6 40 0 80 -28 152 -107 187 -127
259 -152 75 -25 88 -26 205 -21 137 6 211 23 306 69 158 77 288 240 339 423 9
33 19 114 22 180 16 360 -138 680 -551 1143 -415 466 -500 614 -513 892 -8
175 22 282 107 374 89 96 208 117 333 58 186 -87 315 -317 382 -677 l22 -120
36 -3 37 -3 0 435 0 436 -34 0 c-32 0 -35 -2 -41 -40 -9 -53 -32 -79 -75 -86
-29 -4 -51 4 -133 51 -164 95 -299 127 -438 105z"/>
<path d="M10590 20400 c-364 -57 -552 -401 -621 -1135 -16 -168 -16 -721 -1
-895 37 -402 115 -703 233 -903 51 -86 174 -212 245 -249 71 -38 155 -58 246
-58 110 0 172 26 258 106 l68 64 32 -36 c17 -20 39 -52 48 -70 14 -30 20 -34
54 -34 l38 0 0 441 0 440 -37 -3 -36 -3 -24 -140 c-60 -357 -143 -580 -243
-654 -168 -123 -356 -14 -427 249 -17 60 -18 150 -18 1260 l0 1195 23 78 c41
144 93 221 174 261 61 31 108 33 164 7 117 -53 209 -261 308 -693 5 -24 11
-28 41 -28 l35 0 0 385 0 385 -34 0 c-29 0 -38 -6 -60 -42 -14 -24 -36 -56
-50 -73 l-25 -30 -28 35 c-99 124 -205 165 -363 140z"/>
<path d="M5100 19950 l0 -420 33 0 33 0 18 131 c56 418 204 616 471 631 l50 3
0 -1515 0 -1515 -107 -3 -108 -3 0 -34 0 -35 420 0 420 0 0 35 0 35 -105 0
-105 0 0 1520 c0 1209 3 1520 13 1520 48 0 152 -26 203 -50 161 -77 267 -289
307 -610 l13 -105 37 -3 37 -3 0 420 0 421 -815 0 -815 0 0 -420z"/>
<path d="M6940 20336 l0 -36 105 0 105 0 0 -1520 0 -1520 -105 0 -105 0 0 -35
0 -35 420 0 420 0 0 35 0 35 -110 0 -110 0 0 805 0 805 128 0 c70 0 144 -5
165 -11 52 -14 100 -60 128 -121 l24 -53 6 -565 c5 -493 8 -573 23 -625 42
-150 118 -255 214 -297 59 -27 184 -36 248 -18 97 28 165 107 200 237 9 35 15
65 13 67 -2 2 -19 7 -36 11 -25 5 -33 3 -33 -7 0 -30 -51 -115 -76 -126 -33
-16 -76 -15 -95 1 -45 37 -44 22 -50 596 -5 472 -8 554 -22 606 -58 203 -181
321 -349 333 -37 2 -68 8 -68 11 0 4 23 13 51 20 142 37 289 150 343 265 51
107 68 196 73 386 4 135 2 196 -11 268 -44 253 -170 419 -370 489 l-81 28
-522 3 -523 3 0 -35z m886 -51 c86 -25 144 -102 170 -223 21 -100 20 -847 -1
-919 -22 -74 -72 -143 -125 -173 -41 -22 -58 -25 -177 -28 l-133 -4 0 674 c0
371 3 678 7 681 13 13 209 7 259 -8z"/>
<path d="M8840 20335 l0 -35 105 0 105 0 0 -1520 0 -1520 -105 0 -105 0 0 -35
0 -35 415 0 415 0 0 35 0 35 -105 0 -105 0 2 1518 3 1517 108 3 107 3 0 34 0
35 -420 0 -420 0 0 -35z"/>
<path d="M11360 20335 l0 -34 108 -3 107 -3 0 -1515 0 -1515 -107 -3 -108 -3
0 -34 0 -35 420 0 420 0 0 35 0 35 -105 0 -105 0 0 1520 0 1520 105 0 105 0 0
35 0 35 -420 0 -420 0 0 -35z"/>
<path d="M13380 20335 l0 -34 108 -3 107 -3 0 -1515 0 -1515 -107 -3 -108 -3
0 -34 0 -35 420 0 420 0 0 35 0 35 -105 0 -105 0 0 1520 0 1520 105 0 105 0 0
35 0 35 -420 0 -420 0 0 -35z"/>
<path d="M14510 19915 l0 -455 35 0 c33 0 35 2 35 33 0 49 45 255 75 343 86
252 224 396 425 445 34 8 119 13 225 14 146 0 170 -2 167 -15 -2 -8 -237 -690
-523 -1514 -336 -970 -519 -1513 -519 -1538 l0 -38 709 0 709 0 6 103 c3 56
11 224 16 372 5 149 13 323 16 388 l6 117 -36 0 c-29 0 -37 -4 -41 -22 -67
-305 -118 -443 -221 -600 -85 -128 -215 -223 -360 -263 -71 -19 -364 -34 -364
-17 0 5 234 685 520 1511 388 1120 520 1512 520 1546 l0 45 -700 0 -700 0 0
-455z"/>
<path d="M17020 19950 l0 -420 33 0 33 0 12 103 c30 257 105 451 211 550 38
35 80 63 115 76 67 25 186 45 198 33 4 -4 7 -687 6 -1518 l-3 -1509 -107 -3
-108 -3 0 -34 0 -35 420 0 420 0 0 35 0 35 -105 0 -105 0 0 1520 0 1521 53 -7
c176 -20 291 -104 367 -267 46 -98 85 -250 102 -393 l12 -104 38 0 38 0 0 420
0 420 -815 0 -815 0 0 -420z"/>
<path d="M18830 20335 l0 -35 105 0 105 0 0 -1238 c0 -804 4 -1267 11 -1322
24 -198 75 -316 182 -424 114 -113 226 -156 415 -156 265 0 441 91 528 274 71
149 67 71 73 1488 6 1269 6 1277 27 1304 35 48 68 65 132 71 l62 6 0 33 0 34
-265 0 -265 0 0 -34 0 -33 58 -6 c75 -6 114 -27 144 -74 l23 -38 0 -1265 c0
-1178 -1 -1269 -18 -1330 -40 -150 -113 -250 -217 -299 -48 -23 -68 -26 -160
-26 -95 0 -110 3 -156 27 -59 31 -108 84 -138 147 l-21 46 0 1405 0 1405 108
3 107 3 0 34 0 35 -420 0 -420 0 0 -35z"/>
<path d="M20940 20335 l0 -34 108 -3 107 -3 0 -1660 0 -1660 -24 -53 c-13 -28
-39 -65 -57 -82 -45 -39 -132 -64 -201 -57 -62 6 -151 52 -166 84 -9 20 -4 29
40 76 58 61 81 131 69 210 -13 85 -92 158 -179 165 -120 10 -215 -55 -236
-160 -37 -178 86 -361 287 -430 57 -19 87 -23 202 -23 396 1 582 184 657 645
15 94 17 251 20 1528 l4 1422 105 0 104 0 0 35 0 35 -420 0 -420 0 0 -35z"/>
<path d="M22000 20335 l0 -35 105 0 105 0 0 -1520 0 -1520 -105 0 -105 0 0
-35 0 -35 415 0 415 0 0 35 0 35 -105 0 -105 0 2 1518 3 1517 108 3 107 3 0
34 0 35 -420 0 -420 0 0 -35z"/>
<path d="M23040 20335 l0 -34 108 -3 107 -3 0 -1450 c0 -1430 0 -1451 -20
-1489 -27 -53 -58 -74 -133 -88 -61 -11 -62 -12 -62 -45 l0 -33 300 0 300 0 0
34 0 33 -83 5 c-129 7 -180 50 -206 176 -13 61 -16 2522 -3 2522 4 0 228 -622
498 -1383 l491 -1382 166 -3 167 -2 0 1507 c0 1178 3 1513 13 1532 18 36 66
60 135 67 l62 7 0 33 0 34 -300 0 -300 0 0 -35 0 -35 50 0 c121 0 196 -37 231
-115 18 -38 19 -97 19 -1229 0 -654 -3 -1186 -7 -1182 -4 4 -213 589 -464
1299 l-455 1292 -307 3 -307 2 0 -35z"/>
<path d="M25090 20335 l0 -35 105 0 105 0 0 -1520 0 -1520 -105 0 -105 0 0
-35 0 -35 740 0 740 0 0 415 0 415 -34 0 -34 0 -11 -67 c-31 -183 -105 -400
-171 -503 -61 -95 -155 -158 -270 -180 -29 -5 -117 -10 -196 -10 l-144 0 2
793 3 792 145 0 c137 -1 148 -2 196 -27 114 -60 181 -189 199 -385 7 -72 7
-73 36 -73 l29 0 0 505 0 505 -35 0 -35 0 0 -89 c0 -161 -53 -259 -174 -321
-68 -35 -71 -35 -217 -39 l-149 -3 2 688 3 689 155 3 c176 3 261 -8 334 -45
131 -65 223 -232 264 -480 l17 -103 38 0 37 0 0 350 0 350 -735 0 -735 0 0
-35z"/>
<path d="M14835 16658 c-27 -11 -120 -35 -205 -53 -236 -51 -294 -77 -377
-169 -31 -35 -59 -56 -80 -60 -91 -20 -151 -109 -140 -210 3 -34 0 -68 -8 -92
-19 -52 -18 -146 1 -283 17 -123 12 -173 -27 -258 -40 -88 -51 -175 -46 -348
3 -88 13 -203 22 -255 16 -88 20 -97 54 -126 59 -51 89 -118 123 -276 36 -169
64 -244 123 -329 25 -34 50 -77 56 -96 10 -31 8 -38 -17 -74 -36 -53 -99 -96
-160 -110 -54 -12 -79 -20 -172 -55 -40 -15 -114 -30 -195 -40 -220 -25 -299
-40 -371 -69 -56 -22 -78 -26 -120 -21 -166 20 -159 20 -216 -9 -208 -105
-393 -323 -521 -613 -91 -209 -181 -453 -215 -587 -20 -77 -62 -232 -94 -345
-32 -113 -70 -262 -85 -332 l-27 -127 23 -32 c19 -27 24 -58 40 -237 31 -339
76 -608 133 -796 63 -204 249 -349 551 -428 l90 -24 27 -184 c52 -359 82 -697
98 -1118 5 -125 13 -252 19 -282 6 -39 5 -98 -5 -203 -19 -199 -10 -261 54
-345 21 -27 26 -45 26 -97 1 -56 -4 -72 -43 -146 -127 -241 -124 -229 -106
-410 7 -69 5 -81 -18 -135 -16 -37 -30 -95 -37 -154 -37 -314 -136 -741 -276
-1187 -41 -134 -45 -155 -41 -218 3 -38 20 -117 38 -174 l32 -105 -22 -90
c-58 -243 -81 -451 -81 -741 0 -291 43 -814 75 -915 50 -157 56 -299 45 -1005
l-5 -310 45 -145 c49 -162 56 -239 32 -380 -16 -97 -14 -429 4 -620 8 -80 35
-296 60 -480 25 -184 53 -405 62 -490 l17 -155 55 -7 c143 -18 566 -59 748
-73 238 -17 760 -40 767 -34 6 6 60 335 81 494 11 81 17 213 19 405 3 281 2
286 -22 358 -28 82 -26 127 8 158 31 28 44 59 67 159 24 104 39 255 47 480 3
88 12 212 20 275 8 63 19 170 25 237 22 266 58 475 170 988 115 528 156 753
175 970 7 84 30 152 55 165 15 8 23 4 41 -23 12 -17 44 -55 72 -84 l49 -51 24
-184 c32 -244 45 -454 36 -562 -8 -86 -7 -91 29 -185 20 -53 88 -215 151 -361
114 -261 117 -269 187 -550 103 -417 158 -722 181 -1012 7 -78 23 -195 36
-258 53 -254 66 -377 84 -795 10 -241 12 -270 31 -453 8 -81 16 -115 26 -119
46 -18 877 87 1338 168 238 42 655 126 663 133 7 8 -87 234 -123 295 -67 115
-76 193 -49 430 17 139 17 146 -2 215 -31 114 -26 327 10 475 23 93 27 126 22
180 -16 165 -82 494 -125 630 -27 82 -26 127 1 171 20 32 23 51 28 245 3 116
9 215 13 222 4 6 0 43 -8 82 -33 156 -64 459 -90 881 -11 170 -35 424 -46 479
-37 183 -29 321 36 621 25 118 51 260 57 316 l11 100 -61 195 c-140 447 -198
698 -267 1154 -30 198 -64 348 -100 436 -25 62 -25 63 -6 83 11 12 24 34 30
49 14 36 14 114 1 122 -16 10 -67 116 -84 176 -9 29 -25 117 -36 194 -11 77
-25 156 -29 175 -5 19 -12 145 -15 280 -4 135 -13 432 -21 660 -8 228 -17 525
-21 660 l-7 245 -56 227 c-31 125 -55 232 -53 238 2 6 33 24 68 40 76 34 144
100 194 189 32 56 37 61 60 54 14 -5 66 -8 115 -8 79 1 99 5 169 34 123 53
165 101 210 237 16 48 15 72 -4 410 -25 442 -37 579 -55 670 -20 97 -33 224
-45 444 -18 321 -42 469 -104 630 -86 221 -223 350 -436 409 -81 23 -249 46
-400 56 -301 20 -457 52 -600 125 -24 12 -91 31 -149 41 -58 11 -123 28 -145
39 -57 28 -163 125 -186 171 -29 56 -27 160 6 279 14 52 31 126 38 164 l12 68
37 4 c63 5 70 14 120 161 56 167 81 264 101 404 20 136 20 183 0 200 -48 40
-52 85 -24 334 18 167 0 240 -116 463 -41 78 -74 150 -74 160 0 10 -7 28 -16
40 -13 19 -24 22 -80 22 -62 0 -67 2 -130 50 -170 131 -375 188 -557 155 l-88
-15 -54 25 c-77 35 -120 38 -180 13z"/>
<path d="M5037 15015 c-61 -9 -100 -21 -125 -38 -20 -13 -69 -42 -108 -65 -38
-22 -96 -62 -127 -88 -49 -42 -57 -53 -57 -84 0 -19 -7 -44 -15 -54 -8 -11
-15 -28 -15 -39 0 -10 -19 -40 -41 -65 -57 -65 -95 -133 -125 -227 -35 -107
-36 -248 -4 -349 l21 -68 -20 -22 c-30 -32 -27 -76 14 -206 19 -61 35 -127 35
-146 0 -48 27 -71 94 -79 31 -4 61 -14 69 -24 8 -9 26 -55 40 -103 14 -48 43
-121 64 -163 l38 -76 -27 -52 c-15 -29 -35 -74 -44 -102 -21 -61 -26 -66 -94
-104 -171 -95 -284 -131 -412 -131 -45 0 -75 -6 -103 -21 -56 -29 -236 -97
-290 -109 -62 -14 -317 -141 -380 -190 -29 -22 -54 -40 -58 -40 -9 0 -34 84
-71 240 -37 158 -71 255 -110 323 -29 48 -26 57 16 57 49 0 33 31 -49 90 -75
55 -173 154 -173 175 0 7 11 17 25 23 33 15 32 30 -2 37 -100 21 -162 76 -315
275 -100 130 -129 145 -268 144 -81 0 -118 -6 -164 -22 -69 -26 -109 -27 -191
-7 -123 29 -193 17 -367 -65 -61 -28 -88 -46 -88 -58 0 -29 -28 -59 -86 -93
-69 -39 -201 -194 -246 -289 -17 -36 -44 -79 -60 -95 -15 -17 -36 -56 -47 -88
-20 -57 -53 -112 -124 -201 -35 -46 -77 -116 -77 -132 0 -8 69 0 94 11 17 8
18 5 12 -29 -4 -21 -28 -92 -52 -159 -25 -66 -50 -147 -56 -180 -10 -55 -9
-59 12 -74 22 -15 22 -20 16 -111 -9 -113 -35 -222 -75 -304 -23 -48 -27 -65
-18 -79 13 -21 -16 -95 -43 -109 -33 -18 -91 -118 -134 -232 -25 -63 -54 -134
-66 -158 -26 -51 -90 -122 -136 -151 -45 -28 -45 -49 2 -49 l35 0 -27 -35 -27
-35 28 -98 c484 -1732 1255 -3324 2308 -4772 498 -684 1102 -1378 1692 -1944
248 -238 479 -448 491 -448 15 1 34 86 44 197 6 61 20 153 30 205 11 52 31
172 45 265 29 194 34 217 78 340 l31 90 -4 195 c-2 107 -4 238 -4 290 1 98 18
205 35 216 5 3 17 -12 26 -33 14 -30 17 -65 15 -167 l-2 -129 49 -52 c60 -63
68 -90 86 -271 11 -116 18 -153 43 -210 40 -91 48 -123 72 -294 12 -80 34
-192 50 -250 46 -168 66 -311 52 -380 -17 -81 -16 -91 23 -167 40 -80 67 -183
90 -343 8 -63 18 -124 20 -135 7 -34 446 -355 845 -620 232 -154 491 -318 495
-313 1 2 -2 39 -6 83 -4 44 -8 115 -8 157 -1 93 -19 238 -68 538 -30 186 -36
254 -38 390 -1 91 -5 249 -10 351 -11 244 11 370 79 447 l31 36 -2 113 c-1 93
-5 121 -23 158 -13 27 -25 78 -30 132 -5 48 -14 120 -21 158 -12 69 -15 307
-5 458 3 42 15 107 27 145 14 44 23 99 25 162 1 53 8 108 13 123 6 15 14 57
17 94 4 38 16 85 26 105 22 43 33 109 49 321 11 143 13 149 36 158 36 14 71
11 81 -7 5 -9 3 -48 -5 -97 -19 -120 -28 -485 -14 -577 7 -41 16 -131 21 -200
14 -176 30 -264 115 -610 128 -522 146 -699 99 -948 -12 -68 -12 -77 5 -111
38 -73 52 -148 61 -327 5 -99 14 -198 20 -221 9 -36 7 -49 -10 -80 -26 -50
-25 -103 5 -219 28 -109 24 -150 -20 -202 -23 -28 -25 -39 -31 -183 -6 -140 6
-411 24 -559 l7 -55 140 -78 c148 -82 854 -438 943 -474 l52 -22 0 107 c0 219
-48 986 -66 1044 -3 9 4 45 16 80 11 35 30 135 41 223 11 88 25 178 31 200 6
22 15 58 20 80 5 22 13 283 18 580 11 680 25 827 101 1071 28 89 32 118 39
284 8 175 22 259 46 267 9 3 136 -186 193 -288 54 -97 92 -216 98 -304 5 -74
9 -86 53 -160 135 -224 236 -459 412 -955 73 -208 80 -232 84 -320 10 -213 67
-384 189 -565 26 -39 53 -87 61 -109 22 -60 17 -171 -11 -277 -64 -237 -69
-273 -54 -383 30 -215 15 -411 -41 -541 -11 -26 -27 -103 -36 -177 -8 -72 -24
-174 -33 -226 l-18 -94 26 -10 c145 -57 747 -246 1046 -327 83 -23 159 -44
169 -47 19 -6 19 -1 13 142 -4 82 -12 232 -18 334 -20 342 7 573 93 800 62
163 76 339 79 980 l2 515 -62 315 c-139 710 -220 1000 -383 1380 -97 224 -118
297 -125 434 -5 92 -10 115 -29 144 -36 53 -44 94 -54 267 -4 88 -13 173 -19
189 -10 26 -6 37 61 148 114 188 228 290 305 272 15 -3 71 -30 124 -60 52 -30
106 -54 120 -54 31 1 99 32 145 66 49 37 108 117 187 251 61 104 65 115 55
143 -9 28 -5 39 46 125 164 274 232 466 241 680 4 83 8 99 56 205 123 273 179
503 186 766 l5 171 -71 109 c-143 216 -240 431 -426 944 -173 477 -252 648
-432 933 -140 221 -292 345 -498 406 -72 21 -208 41 -282 41 -55 0 -73 19 -73
79 0 30 -6 53 -14 61 -11 8 -12 18 -5 36 12 33 2 50 -60 102 -64 54 -68 79
-11 74 51 -5 51 6 4 77 -47 69 -64 112 -64 157 l0 37 23 -21 c20 -19 26 -20
42 -8 16 11 17 22 12 77 -4 35 -11 182 -17 326 -14 381 -49 533 -157 695 -41
62 -44 71 -30 86 13 15 4 31 -89 167 -177 257 -279 349 -427 387 -70 18 -71
18 -114 -3 -56 -27 -83 -20 -166 41 -40 28 -83 51 -106 55 -52 9 -174 -33
-250 -85 -88 -59 -191 -182 -249 -297 -12 -23 -40 -57 -63 -75 -102 -82 -119
-100 -119 -128 0 -16 -22 -60 -57 -111 -73 -109 -113 -197 -128 -285 -11 -64
-18 -78 -69 -138 -31 -36 -56 -74 -56 -83 0 -9 9 -27 21 -39 21 -22 21 -23 3
-94 -13 -57 -16 -98 -11 -203 5 -126 4 -134 -19 -177 -13 -25 -24 -57 -24 -72
0 -24 4 -28 28 -28 32 0 75 -39 91 -83 13 -34 -8 -83 -42 -97 -12 -4 -49 -18
-82 -31 -78 -29 -98 -45 -84 -71 13 -24 3 -55 -22 -68 -32 -18 -25 -63 16 -99
47 -41 70 -45 179 -36 162 15 189 6 202 -62 8 -41 -9 -63 -90 -111 -74 -45
-175 -79 -336 -113 -156 -33 -152 -34 -170 60 -6 31 -40 128 -75 216 -35 88
-75 198 -90 245 -15 47 -41 109 -58 139 -16 29 -40 86 -53 125 -29 93 -78 210
-111 266 -51 86 -168 189 -368 322 -104 70 -215 148 -247 175 -48 40 -81 56
-215 104 -328 118 -487 203 -613 329 -139 139 -148 198 -65 400 33 80 49 134
53 178 5 60 7 65 41 86 33 21 38 30 48 87 7 35 24 107 38 159 26 96 27 149 2
195 -6 11 -10 52 -8 91 2 55 -4 89 -23 145 -33 98 -166 344 -204 377 -16 15
-71 75 -121 134 -148 172 -209 214 -306 208 -126 -8 -250 -2 -294 14 -24 9
-46 15 -50 15 -3 -1 -46 -7 -94 -14z m1895 -4927 c-2 -62 -6 -115 -8 -117 -19
-20 -32 156 -14 198 7 17 15 31 19 31 3 0 4 -51 3 -112z m3798 -743 c57 -124
112 -277 175 -491 67 -227 143 -459 161 -496 16 -30 67 -51 116 -46 31 3 32 1
41 -41 14 -68 -7 -150 -73 -291 -32 -69 -63 -143 -69 -165 -14 -53 -14 -128 1
-177 11 -37 10 -40 -20 -70 -21 -20 -37 -50 -47 -87 -9 -31 -20 -74 -26 -95
-6 -21 -23 -50 -37 -62 -60 -53 -109 -103 -151 -153 -48 -59 -94 -91 -128 -91
-23 0 -23 2 -23 138 0 244 -29 395 -98 507 -35 57 -37 65 -37 145 0 80 3 92
48 192 77 175 76 238 -4 324 l-50 52 25 114 c32 146 47 233 96 573 41 283 45
305 55 305 3 0 24 -38 45 -85z m-7063 -653 c38 -56 53 -93 53 -132 0 -20 17
-53 50 -98 l50 -68 -9 -101 c-12 -135 -44 -193 -96 -173 -48 18 -132 170 -135
243 0 4 6 7 13 7 25 0 49 38 54 85 4 31 -3 79 -23 156 -25 95 -27 111 -14 119
22 14 22 14 57 -38z m3883 -782 c-5 -41 -9 -114 -10 -161 l0 -85 -52 -45 c-85
-73 -243 -179 -267 -179 -4 0 -13 23 -20 50 -12 48 -12 52 18 104 16 30 61
101 98 159 37 57 76 119 85 136 16 30 21 32 64 29 45 -3 47 -2 66 35 11 21 22
37 23 35 2 -2 -1 -37 -5 -78z"/>
<path d="M24240 14868 c-32 -15 -72 -22 -142 -26 l-97 -4 -50 -43 c-27 -23
-61 -45 -74 -49 -49 -12 -164 -118 -228 -210 -76 -110 -98 -159 -99 -212 0
-46 -19 -69 -48 -60 -32 10 -54 -4 -49 -31 2 -13 0 -26 -4 -29 -16 -10 -9 -29
13 -39 31 -14 38 -51 39 -205 1 -210 -2 -234 -29 -238 -12 -2 -38 -18 -57 -36
-46 -43 -46 -80 -1 -177 18 -41 54 -148 80 -238 25 -91 47 -165 49 -165 1 -1
19 -10 40 -20 50 -26 73 -66 100 -178 20 -80 22 -97 11 -124 -7 -16 -20 -73
-30 -125 -22 -125 -28 -140 -82 -195 -65 -65 -144 -99 -329 -140 -87 -20 -183
-45 -213 -56 -30 -11 -93 -24 -140 -28 -47 -5 -138 -20 -204 -34 -65 -15 -150
-27 -187 -28 -68 -2 -70 -3 -140 -60 -39 -32 -74 -58 -78 -58 -12 0 -121 117
-121 129 0 12 21 5 67 -22 53 -31 73 -1 28 41 -14 13 -33 47 -42 75 -10 28
-29 74 -43 102 -21 42 -32 53 -70 66 -64 24 -61 49 7 64 60 14 83 29 83 56 0
14 -7 19 -28 19 -15 0 -38 7 -50 16 -19 13 -21 21 -16 54 9 53 -10 101 -67
172 -53 66 -57 76 -34 84 26 10 61 -22 89 -83 33 -70 53 -93 78 -93 18 0 18 1
2 32 -9 18 -30 70 -45 117 -40 118 -68 157 -134 187 -36 16 -59 33 -70 53 -21
42 -19 49 22 68 49 24 52 39 11 56 -42 18 -80 62 -119 139 -17 33 -57 89 -90
124 -64 69 -69 87 -43 149 9 21 13 49 9 65 -6 26 -8 27 -43 19 -51 -12 -47
-13 -86 21 -24 21 -46 59 -72 121 -38 91 -85 149 -122 149 -9 0 -40 16 -69 36
-28 19 -67 38 -85 40 -18 3 -48 9 -67 14 -19 5 -45 7 -58 4 -25 -7 -25 -6 -43
64 -9 35 -15 42 -36 42 -13 0 -36 -7 -50 -16 -21 -14 -31 -15 -63 -5 -61 18
-80 14 -191 -39 -77 -37 -116 -50 -145 -49 -22 1 -58 -5 -80 -14 -22 -8 -60
-18 -85 -22 -50 -8 -90 -26 -109 -48 -6 -8 -27 -18 -47 -21 -60 -12 -154 -114
-154 -168 0 -34 -75 -187 -99 -204 -17 -13 -21 -26 -21 -73 0 -65 -12 -83 -59
-86 -35 -3 -88 -41 -107 -77 -18 -34 -18 -69 1 -138 28 -105 16 -155 -45 -180
-47 -19 -36 -30 32 -30 l62 0 -57 -52 c-54 -51 -87 -106 -87 -146 0 -10 13
-36 29 -58 45 -61 48 -87 16 -135 -30 -46 -27 -75 8 -65 73 21 75 21 83 -19 9
-48 0 -139 -19 -192 l-15 -43 27 0 c17 0 38 11 56 30 26 27 29 36 27 89 -2 43
2 63 13 75 23 23 33 20 56 -16 15 -25 19 -45 16 -81 -5 -53 -20 -74 -85 -119
-58 -40 -75 -81 -62 -147 14 -76 -6 -113 -47 -86 -22 15 -53 20 -53 10 0 -3 6
-21 14 -40 18 -43 69 -75 118 -75 39 0 50 -10 105 -95 22 -35 24 -43 14 -70
-6 -17 -11 -34 -11 -38 0 -13 55 -7 76 8 12 8 24 11 28 8 14 -14 4 -61 -19
-93 -29 -40 -32 -88 -10 -170 22 -82 19 -131 -10 -174 -33 -49 -33 -70 0 -62
14 3 36 9 50 12 l25 6 -15 -48 c-11 -38 -12 -57 -4 -85 14 -45 1 -74 -38 -84
-42 -10 -62 -33 -78 -90 -17 -55 -42 -89 -75 -100 -25 -8 -26 -21 -1 -35 36
-19 79 -11 115 20 28 25 35 28 40 14 16 -41 4 -90 -39 -170 -44 -80 -56 -132
-36 -162 5 -9 -3 -33 -25 -69 -72 -119 -104 -286 -85 -442 6 -49 18 -108 26
-130 8 -23 12 -55 8 -71 -3 -19 0 -39 11 -55 33 -50 18 -259 -38 -550 -48
-246 -65 -360 -76 -510 -15 -203 -22 -242 -90 -525 -62 -257 -90 -418 -90
-516 -1 -33 -8 -99 -16 -149 -19 -113 -39 -1250 -23 -1358 13 -98 40 -215 98
-432 97 -359 96 -355 93 -725 -4 -518 -19 -657 -99 -905 -52 -162 -73 -262
-73 -346 0 -44 -7 -73 -25 -109 -37 -73 -53 -155 -65 -335 -13 -187 -23 -261
-47 -330 -16 -44 -18 -95 -18 -415 -1 -350 -2 -368 -24 -445 -59 -204 -81
-340 -111 -685 -11 -129 -27 -282 -35 -340 -22 -165 -49 -479 -42 -486 8 -9
361 106 656 213 387 140 779 300 1151 470 185 85 802 393 835 417 16 11 16 20
1 142 -95 753 -179 1278 -286 1784 -77 362 -145 795 -174 1109 -21 218 -21
528 -1 555 8 11 15 34 15 52 0 17 13 60 30 95 30 66 60 167 60 205 0 48 86
226 269 559 133 242 205 400 226 503 30 138 10 365 -40 462 -19 38 -19 53 3
79 l17 22 58 -51 c61 -55 137 -164 167 -239 40 -103 47 -181 70 -766 10 -278
25 -490 60 -845 11 -113 24 -263 29 -335 24 -312 87 -552 311 -1185 l108 -305
-9 -88 c-6 -63 -20 -118 -50 -195 -56 -146 -69 -196 -69 -269 0 -53 6 -72 41
-138 52 -98 57 -158 35 -360 -17 -145 -15 -258 5 -271 23 -14 753 485 1089
745 84 66 85 66 82 107 -2 23 6 78 18 123 20 78 20 93 11 324 -7 158 -7 363
-1 592 11 402 12 803 2 923 -4 45 -4 82 -1 82 17 0 39 -86 39 -153 0 -116 17
-228 70 -447 27 -113 54 -245 60 -295 7 -49 22 -115 34 -145 60 -144 87 -293
91 -496 2 -119 7 -175 20 -213 l17 -51 38 30 c285 226 923 816 1213 1123 l138
146 -16 163 c-34 354 -37 398 -31 540 5 117 3 153 -9 181 -21 51 -43 189 -55
357 -9 114 -18 164 -41 232 -34 102 -35 119 -8 178 25 56 19 97 -22 141 l-29
32 -4 197 -3 198 26 -10 c47 -17 83 -1 147 65 34 34 78 83 99 110 21 26 39 46
41 45 1 -2 -1 -23 -6 -48 -33 -167 -30 -517 6 -770 43 -302 150 -742 241 -995
30 -82 56 -156 59 -163 10 -30 503 579 801 988 1001 1376 1757 2905 2238 4528
l49 162 -42 83 c-23 45 -42 87 -42 93 0 5 -15 25 -34 43 -20 20 -32 39 -29 48
3 8 -5 28 -17 45 -19 26 -21 34 -11 50 15 24 -3 47 -100 137 -64 58 -69 66
-64 93 8 37 1 43 -127 108 -82 42 -98 54 -98 74 0 16 -15 36 -46 61 -37 30
-44 42 -40 61 5 18 -1 28 -26 47 -18 14 -42 27 -53 29 -29 5 -30 36 -4 72 26
34 28 59 13 193 -10 89 -29 119 -102 167 -28 18 -42 43 -91 161 -32 77 -72
163 -89 190 -27 43 -29 52 -17 61 26 19 17 38 -55 109 -65 65 -70 72 -70 113
0 24 -6 58 -14 75 -8 18 -19 56 -25 85 -17 83 -65 166 -146 251 -41 43 -75 87
-75 97 -1 29 -20 49 -87 88 -41 24 -64 45 -73 66 -14 33 -44 53 -99 65 -18 4
-54 23 -79 42 -59 45 -102 66 -186 92 -80 25 -111 26 -157 7 -58 -24 -139 -29
-188 -12 -109 39 -242 26 -401 -41 -176 -74 -377 -265 -426 -405 -8 -24 -23
-61 -34 -83 -11 -22 -24 -82 -30 -133 -10 -93 -28 -153 -49 -166 -19 -12 -12
-36 10 -36 19 0 21 -4 14 -32 -14 -70 -24 -166 -25 -247 0 -73 -3 -86 -25
-112 -33 -40 -40 -88 -26 -182 12 -74 11 -82 -11 -134 l-22 -55 -44 7 c-67 10
-108 31 -143 75 -35 44 -54 48 -101 24 -24 -13 -51 -15 -117 -12 -72 4 -107
13 -211 52 -104 40 -140 49 -215 53 -66 5 -94 11 -108 24 -11 10 -54 38 -97
63 -91 53 -110 75 -110 132 0 34 7 51 38 88 37 44 111 183 127 236 4 14 24 43
46 65 50 52 74 109 104 245 14 62 38 139 55 171 35 70 37 101 10 164 -24 55
-25 83 -6 111 16 22 61 274 72 399 4 53 13 91 27 113 17 30 19 45 14 120 -5
70 -10 89 -26 102 -11 8 -26 31 -32 50 -16 49 -27 60 -58 60 -35 0 -48 10 -61
45 -6 17 -36 76 -67 132 -54 96 -58 101 -94 107 -22 3 -54 19 -73 36 -19 17
-45 30 -61 30 -18 0 -37 12 -62 39 l-35 39 -76 0 c-49 -1 -107 7 -159 20 -100
27 -145 27 -203 0z m-2160 -5448 c8 -14 4 -37 -15 -94 -14 -41 -25 -88 -25
-105 0 -40 -10 -39 -39 6 l-23 36 23 56 c12 31 29 71 36 89 15 37 28 40 43 12z"/>
</g>
</svg>
