<?xml version="1.0" encoding="UTF-8" standalone="no"?>
<svg
   xmlns:dc="http://purl.org/dc/elements/1.1/"
   xmlns:cc="http://creativecommons.org/ns#"
   xmlns:rdf="http://www.w3.org/1999/02/22-rdf-syntax-ns#"
   xmlns:svg="http://www.w3.org/2000/svg"
   xmlns="http://www.w3.org/2000/svg"
   xmlns:sodipodi="http://sodipodi.sourceforge.net/DTD/sodipodi-0.dtd"
   xmlns:inkscape="http://www.inkscape.org/namespaces/inkscape"
   sodipodi:docname="strici_logo_fill_white.svg"
   inkscape:version="1.0 (4035a4f, 2020-05-01)"
   id="svg8"
   version="1.1"
   viewBox="0 0 193.89665 193.97181"
   height="193.9718mm"
   width="193.89665mm">
  <defs
     id="defs2" />
  <sodipodi:namedview
     showguides="false"
     inkscape:window-maximized="0"
     inkscape:window-y="0"
     inkscape:window-x="0"
     inkscape:window-height="778"
     inkscape:window-width="1252"
     showgrid="true"
     inkscape:document-rotation="0"
     inkscape:current-layer="layer1"
     inkscape:document-units="mm"
     inkscape:cy="356.58128"
     inkscape:cx="999.54598"
     inkscape:zoom="0.45014304"
     inkscape:pageshadow="2"
     inkscape:pageopacity="0.0"
     borderopacity="1.0"
     bordercolor="#666666"
     pagecolor="#ffffff"
     id="base">
    <inkscape:grid
       originy="-50.536716"
       originx="-9.3929896"
       id="grid269"
       type="xygrid" />
  </sodipodi:namedview>
  <metadata
     id="metadata5">
    <rdf:RDF>
      <cc:Work
         rdf:about="">
        <dc:format>image/svg+xml</dc:format>
        <dc:type
           rdf:resource="http://purl.org/dc/dcmitype/StillImage" />
        <dc:title></dc:title>
      </cc:Work>
    </rdf:RDF>
  </metadata>
  <g
     transform="translate(-9.3929901,-50.536713)"
     id="layer1"
     inkscape:groupmode="layer"
     inkscape:label="Layer 1">
    <ellipse
       ry="96.985901"
       rx="96.948326"
       cy="147.52261"
       cx="106.34132"
       id="path205"
       style="fill:#ffffff;stroke-width:0.314365" />
    <ellipse
       ry="524.83984"
       rx="525.76678"
       cy="370.60007"
       cx="1231.9032"
       id="path157"
       style="fill:#ffffff;fill-rule:evenodd;stroke-width:0.28946" />
    <g
       transform="matrix(0.00651102,0,0,-0.00651102,9.4701176,244.37873)"
       fill="#000000"
       stroke="none"
       id="g130">
      <path
         d="m 14280,29754 c -493,-26 -707,-42 -1085,-85 C 9480,29255 6043,27435 3592,24585 2225,22995 1212,21144 614,19144 c -30,-103 -54,-188 -52,-189 2,-2 227,88 500,201 l 497,204 563,437 c 310,241 687,528 838,638 261,191 279,206 394,335 67,74 141,156 166,183 l 45,48 170,19 c 94,11 173,20 177,20 4,0 223,251 486,558 456,531 490,574 711,887 128,182 238,336 245,342 8,9 105,20 289,33 l 278,21 217,178 217,178 303,162 302,162 434,-21 c 238,-11 436,-20 439,-20 4,0 79,-90 167,-200 l 160,-199 113,40 c 61,23 159,58 216,78 71,26 109,45 121,62 9,13 191,320 404,682 l 387,658 506,702 c 278,386 518,714 532,728 14,15 336,230 715,479 l 688,452 898,678 898,679 421,60 420,60 660,361 660,360 261,-60 261,-61 447,-311 c 417,-291 491,-338 1097,-698 l 650,-386 405,-484 405,-484 497,-418 498,-418 517,160 c 285,89 546,170 580,181 l 62,20 39,117 c 22,64 43,116 48,115 5,-1 248,-135 541,-297 453,-251 620,-351 1130,-674 592,-375 603,-381 1093,-636 272,-142 502,-265 512,-274 9,-9 242,-339 518,-732 276,-393 509,-722 518,-732 10,-9 78,-42 152,-72 l 135,-57 393,-392 c 392,-390 397,-396 998,-1099 l 603,-707 21,-197 c 11,-109 22,-199 24,-201 6,-6 509,-84 523,-81 11,3 -52,169 -172,448 -168,394 -436,937 -658,1335 -1353,2433 -3359,4439 -5792,5792 -1711,952 -3602,1557 -5540,1772 -636,71 -855,83 -1590,86 -346,1 -659,1 -695,-1 z"
         id="path94" />
      <path
         d="m 3981,20394 c -115,-24 -205,-75 -296,-167 -92,-92 -139,-175 -177,-313 -19,-68 -22,-106 -22,-264 -1,-178 0,-188 28,-270 72,-214 197,-402 461,-691 306,-334 450,-545 513,-750 67,-216 48,-465 -43,-585 -65,-85 -167,-129 -289,-122 -278,14 -515,363 -587,866 l -11,82 h -34 -34 v -495 -495 h 33 c 31,0 33,2 45,53 16,70 65,117 121,117 32,0 51,-10 107,-53 167,-129 281,-165 467,-146 184,18 316,77 426,188 79,79 132,168 168,276 35,108 43,307 19,438 -56,294 -211,549 -597,982 -351,395 -441,557 -456,826 -8,138 12,233 66,317 64,98 138,142 238,142 79,0 121,-13 193,-62 150,-100 267,-334 323,-644 l 22,-124 h 38 37 v 435 435 h -40 c -40,0 -40,0 -40,-38 0,-43 -26,-78 -66,-88 -26,-7 -48,3 -195,84 -135,75 -276,97 -418,66 z"
         id="path96" />
      <path
         d="m 10573,20399 c -345,-57 -532,-401 -605,-1109 -17,-165 -17,-782 0,-950 36,-354 93,-589 192,-795 124,-259 301,-386 535,-387 72,-1 91,3 150,30 43,21 85,51 120,87 l 53,55 26,-31 c 15,-17 37,-49 49,-70 19,-34 26,-39 60,-39 h 37 v 440 440 h -38 -39 l -12,-82 c -21,-144 -62,-330 -93,-428 -75,-234 -165,-334 -303,-334 -103,0 -174,53 -235,174 -67,132 -64,70 -68,1295 -2,758 0,1146 8,1225 18,187 76,318 169,380 120,80 236,32 322,-135 52,-99 85,-195 134,-390 l 43,-170 36,-3 36,-3 v 385 386 h -34 c -29,0 -38,-6 -57,-37 -13,-20 -36,-52 -52,-70 l -29,-33 -37,48 c -90,113 -199,149 -368,121 z"
         id="path98" />
      <path
         d="m 5090,19950 v -420 h 39 40 l 6,58 c 31,276 94,463 190,570 64,71 165,121 263,129 l 72,6 v -1517 -1516 h -105 -105 v -35 -35 h 420 420 v 35 35 h -105 -105 v 1515 1515 h 50 c 62,0 159,-32 216,-71 92,-63 162,-178 208,-341 24,-84 56,-268 56,-322 0,-24 4,-26 40,-26 h 40 v 420 420 h -820 -820 z"
         id="path100" />
      <path
         d="m 6932,20333 3,-38 108,-3 107,-3 v -1514 -1515 h -110 -110 v -35 -35 h 425 425 v 35 34 l -107,3 -108,3 -3,803 -2,802 h 122 c 185,0 244,-24 289,-117 l 24,-48 6,-550 c 7,-584 9,-609 59,-745 41,-109 137,-205 233,-231 70,-20 176,-14 235,11 89,38 159,141 178,260 5,33 3,38 -17,43 -42,12 -48,8 -60,-35 -15,-58 -67,-108 -110,-108 -43,1 -65,17 -84,63 -13,31 -15,113 -15,534 -1,558 -5,605 -64,729 -64,135 -168,212 -298,222 -73,5 -88,16 -35,27 70,15 192,82 255,140 106,98 152,219 172,452 26,300 -41,555 -184,698 -41,41 -87,74 -130,94 -121,58 -150,61 -704,61 h -503 z m 927,-63 c 56,-28 99,-85 124,-165 21,-68 22,-84 22,-510 0,-402 -2,-443 -18,-480 -31,-68 -69,-115 -116,-143 -42,-24 -53,-26 -175,-27 h -131 l -3,673 -2,672 h 130 c 110,0 137,-3 169,-20 z"
         id="path102" />
      <path
         d="m 8832,20333 3,-38 108,-3 107,-3 v -1514 -1515 h -110 -110 v -35 -35 h 420 420 v 35 34 l -102,3 -103,3 -3,1513 -2,1512 h 110 110 v 40 40 h -426 -425 z"
         id="path104" />
      <path
         d="m 11360,20330 v -40 h 105 105 v -1515 -1515 h -105 -105 v -35 -35 h 420 420 v 35 35 h -105 -105 v 1515 1515 h 105 105 v 40 40 h -420 -420 z"
         id="path106" />
      <path
         d="m 13380,20330 v -40 h 105 105 v -1515 -1515 h -105 -105 v -35 -35 h 420 420 v 35 35 h -105 -105 v 1515 1515 h 105 105 v 40 40 h -420 -420 z"
         id="path108" />
      <path
         d="m 14502,19913 3,-458 h 34 35 l 23,134 c 69,399 221,621 468,686 65,17 405,22 405,6 0,-4 -234,-683 -520,-1509 -358,-1032 -520,-1513 -520,-1541 v -41 h 709 710 l 5,43 c 4,36 37,850 36,915 0,19 -5,22 -35,22 -20,0 -37,-6 -39,-12 -2,-7 -18,-74 -36,-148 -60,-256 -154,-446 -279,-570 -123,-121 -249,-166 -490,-177 -139,-6 -144,-6 -139,13 3,10 240,696 527,1523 286,828 521,1519 521,1538 v 33 h -710 -710 z"
         id="path110" />
      <path
         d="m 17010,19950 v -420 h 39 39 l 12,98 c 33,267 95,439 198,545 56,58 162,107 250,114 l 72,6 v -1517 -1516 h -105 -105 v -35 -35 h 420 420 v 35 35 h -105 -105 v 1516 1517 l 70,-5 c 96,-7 201,-58 265,-130 95,-105 164,-310 190,-560 l 7,-68 h 39 39 v 420 420 h -820 -820 z"
         id="path112" />
      <path
         d="m 18822,20333 3,-38 108,-3 107,-3 v -1247 c 0,-1037 3,-1263 15,-1342 25,-170 73,-276 170,-378 111,-118 231,-164 430,-163 316,0 493,125 571,401 17,61 19,145 24,1350 5,1217 6,1287 23,1313 29,45 75,67 140,67 h 57 v 40 40 h -265 -265 v -40 -40 h 65 c 63,0 68,-2 108,-39 l 42,-40 3,-1270 c 2,-1382 4,-1345 -53,-1464 -36,-78 -105,-151 -173,-184 -51,-25 -68,-28 -157,-28 -89,0 -106,3 -157,28 -66,33 -119,89 -145,156 -17,43 -18,124 -21,1444 l -2,1397 h 110 110 v 40 40 h -426 -425 z"
         id="path114" />
      <path
         d="m 20940,20330 v -40 h 105 105 l 3,-1567 c 3,-1950 6,-1742 -29,-1811 -38,-73 -89,-109 -175,-124 -81,-13 -161,7 -214,53 -43,38 -44,51 -5,79 81,58 115,202 68,290 -69,128 -253,149 -352,40 -90,-100 -67,-277 54,-404 93,-99 218,-146 388,-146 260,0 453,101 550,288 50,97 86,209 108,343 17,95 18,221 21,1532 l 4,1427 h 104 105 v 40 40 h -420 -420 z"
         id="path116" />
      <path
         d="m 21992,20333 3,-38 108,-3 107,-3 v -1514 -1515 h -110 -110 v -35 -35 h 420 420 v 35 34 l -102,3 -103,3 -3,1513 -2,1512 h 110 110 v 40 40 h -426 -425 z"
         id="path118" />
      <path
         d="m 23040,20330 v -40 h 105 105 l -2,-1463 c -3,-1378 -4,-1464 -21,-1490 -24,-36 -57,-57 -103,-63 -83,-11 -84,-12 -84,-49 v -35 h 300 300 v 34 33 l -78,6 c -90,6 -130,23 -166,69 -52,70 -50,21 -54,1371 -1,695 1,1256 6,1253 5,-3 229,-626 498,-1385 l 489,-1381 h 168 167 v 1505 c 0,1662 -5,1546 64,1579 19,9 59,16 90,16 h 56 v 40 40 h -300 -300 v -39 -39 l 93,-4 c 84,-3 97,-6 130,-31 78,-59 72,50 74,-1292 2,-989 0,-1196 -11,-1175 -7,14 -215,600 -462,1302 l -449,1278 h -307 -308 z"
         id="path120" />
      <path
         d="m 25082,20333 3,-38 108,-3 107,-3 v -1514 -1515 h -110 -110 v -35 -35 h 745 745 v 415 415 h -35 c -32,0 -35,-3 -40,-37 -15,-92 -75,-315 -105,-391 -45,-112 -112,-207 -180,-255 -85,-59 -139,-70 -330,-71 l -165,-1 -3,788 -2,787 h 148 c 139,0 151,-2 200,-26 77,-38 143,-127 172,-234 7,-25 16,-85 19,-135 l 6,-90 33,-3 32,-3 v 510 511 h -34 -34 l -4,-102 c -5,-119 -26,-179 -86,-241 -80,-83 -171,-110 -352,-105 l -95,3 -3,683 -2,683 212,-3 c 207,-3 215,-4 270,-30 140,-65 239,-245 279,-507 l 12,-81 h 39 38 v 350 350 h -741 -740 z"
         id="path122" />
      <path
         d="m 14831,16660 c -24,-11 -111,-34 -194,-51 -232,-47 -297,-76 -383,-171 -34,-38 -61,-58 -90,-66 -53,-15 -90,-45 -113,-90 -25,-50 -32,-94 -21,-131 6,-23 4,-42 -7,-68 -15,-38 -15,-68 3,-358 6,-105 8,-97 -49,-245 -19,-49 -21,-76 -21,-260 0,-151 4,-228 16,-293 16,-81 20,-91 61,-130 60,-59 83,-112 117,-274 35,-162 65,-245 113,-311 40,-55 56,-84 67,-123 7,-25 3,-35 -37,-79 -53,-59 -106,-89 -177,-100 -28,-4 -79,-20 -113,-34 -75,-32 -115,-40 -304,-60 -140,-16 -221,-34 -321,-72 -44,-17 -51,-17 -132,-2 -107,21 -129,15 -244,-62 -109,-73 -232,-199 -306,-313 -116,-177 -295,-602 -355,-842 -16,-66 -59,-224 -95,-351 -35,-128 -74,-282 -87,-342 l -22,-111 22,-34 c 18,-30 25,-69 41,-244 31,-329 60,-516 115,-729 33,-128 53,-168 121,-242 101,-113 261,-201 443,-244 47,-12 87,-22 89,-23 5,-4 30,-167 52,-335 43,-333 59,-537 81,-1005 5,-115 12,-237 16,-270 3,-33 0,-123 -7,-200 -15,-167 -7,-221 46,-308 29,-47 35,-67 35,-110 0,-56 -20,-118 -57,-178 -12,-19 -39,-69 -60,-110 -36,-70 -38,-78 -36,-154 8,-211 8,-219 -15,-257 -15,-25 -26,-74 -38,-164 -44,-343 -139,-749 -282,-1203 -32,-102 -35,-121 -30,-190 3,-42 20,-122 37,-179 l 32,-102 -20,-78 c -57,-213 -82,-440 -82,-747 0,-345 33,-746 75,-920 47,-193 50,-222 45,-550 -2,-170 -4,-413 -4,-540 l -1,-230 42,-137 c 52,-172 59,-230 38,-328 -12,-58 -15,-128 -14,-315 2,-278 11,-389 78,-880 27,-198 55,-412 61,-475 7,-63 15,-118 18,-121 7,-7 288,-39 557,-64 211,-19 583,-42 822,-51 l 192,-7 5,24 c 8,37 53,320 72,454 12,85 18,206 20,415 3,293 3,296 -22,373 -29,89 -27,111 17,161 59,68 90,250 109,660 5,115 17,263 25,330 8,67 24,204 35,306 25,221 63,429 163,890 105,478 167,829 167,941 0,46 20,105 43,130 l 21,22 15,-24 c 9,-13 42,-52 73,-87 36,-40 59,-75 63,-95 34,-208 49,-383 51,-590 l 3,-229 37,-96 c 20,-54 86,-209 147,-347 105,-241 112,-259 178,-522 106,-423 166,-755 190,-1058 6,-82 22,-195 34,-250 48,-203 65,-377 85,-825 10,-224 36,-519 46,-529 11,-11 518,44 874,94 370,53 1119,191 1138,209 8,9 -69,199 -119,291 -70,131 -77,187 -54,409 18,168 18,174 -1,247 -35,136 -17,415 35,551 19,50 -58,506 -120,705 -36,117 -36,130 -2,201 27,56 27,62 28,247 0,105 4,196 8,202 5,7 -3,80 -17,163 -31,183 -50,369 -71,690 -21,326 -42,554 -58,615 -7,30 -12,114 -11,215 0,142 4,182 27,285 55,240 78,362 83,445 6,85 6,85 -76,350 -93,303 -139,484 -176,688 -14,79 -27,149 -29,155 -3,7 -18,103 -35,215 -33,219 -70,378 -104,457 l -22,50 28,45 c 39,61 38,122 -2,187 -45,72 -68,152 -96,323 -37,230 -42,305 -64,1020 -11,360 -23,736 -26,835 -6,175 -8,187 -60,404 -30,123 -53,230 -50,237 3,7 31,25 63,40 72,34 158,120 198,197 25,48 33,57 50,51 81,-25 113,-27 185,-10 186,46 265,111 315,265 16,50 16,69 1,355 -25,455 -41,659 -56,717 -16,58 -39,281 -50,489 -17,310 -45,466 -114,629 -121,286 -305,395 -731,430 -311,27 -374,33 -440,47 -93,19 -157,40 -229,76 -34,16 -109,38 -177,52 -129,26 -171,46 -258,122 -100,89 -113,169 -60,371 17,65 34,142 38,172 l 6,53 44,3 c 24,2 50,10 57,17 36,36 133,363 159,533 22,150 20,189 -12,232 -25,32 -28,45 -28,107 0,39 6,127 13,196 20,190 11,232 -109,472 -44,87 -79,166 -79,177 0,37 -27,51 -95,51 -52,0 -69,4 -92,24 -97,82 -249,156 -368,181 -89,19 -144,19 -239,1 -75,-15 -76,-15 -132,11 -75,34 -128,38 -183,13 z"
         id="path124" />
      <path
         d="m 5040,15018 c -42,-5 -88,-18 -105,-28 -16,-11 -57,-34 -90,-51 -129,-68 -225,-150 -225,-193 0,-15 -9,-44 -20,-66 -11,-22 -20,-44 -20,-51 0,-6 -18,-32 -41,-57 -48,-55 -100,-153 -125,-238 -27,-88 -25,-249 5,-333 l 22,-64 -20,-21 c -29,-31 -27,-85 9,-197 17,-51 33,-117 37,-146 7,-65 25,-82 92,-90 29,-3 60,-13 70,-22 10,-9 28,-52 40,-96 12,-44 40,-117 63,-163 l 42,-83 -31,-62 c -18,-34 -40,-84 -50,-111 -10,-27 -25,-52 -33,-56 -8,-4 -28,-15 -45,-24 -175,-98 -248,-122 -410,-135 -71,-5 -111,-13 -122,-23 -21,-19 -264,-108 -293,-108 -31,0 -306,-142 -369,-190 -29,-23 -54,-40 -56,-38 -7,9 -39,121 -75,268 -29,118 -53,190 -84,253 -42,84 -43,87 -20,87 69,0 70,27 2,76 -89,64 -154,122 -182,162 -30,44 -32,52 -12,52 19,0 48,29 41,41 -4,5 -18,9 -33,9 -77,1 -155,64 -276,223 -46,62 -97,124 -113,139 -68,65 -207,77 -357,31 l -89,-27 -82,17 c -104,21 -181,22 -242,1 -80,-27 -238,-103 -236,-114 7,-27 -21,-62 -73,-91 -76,-43 -202,-188 -255,-293 -22,-43 -50,-89 -63,-101 -13,-12 -31,-46 -41,-76 -17,-52 -65,-132 -131,-214 -17,-22 -41,-60 -54,-84 -28,-57 -17,-71 41,-48 24,9 44,15 46,14 6,-7 -28,-119 -63,-209 -20,-51 -41,-122 -47,-157 -11,-58 -10,-64 8,-77 43,-32 10,-272 -55,-413 -23,-49 -28,-67 -19,-77 18,-22 2,-59 -45,-113 -62,-69 -91,-123 -143,-259 -24,-64 -55,-135 -68,-158 -26,-45 -92,-109 -131,-126 -36,-16 -32,-48 6,-48 36,0 36,-2 8,-40 l -21,-29 27,-98 C 1020,9160 1790,7568 2843,6120 3341,5436 3945,4742 4535,4176 c 216,-207 479,-448 494,-454 12,-4 41,135 50,248 5,58 19,150 30,205 11,55 31,173 45,263 16,101 40,204 62,270 42,128 50,217 36,437 -9,153 -1,292 20,355 l 11,35 18,-40 c 15,-32 19,-67 19,-173 v -132 l 39,-35 c 60,-54 81,-115 92,-268 6,-71 17,-148 26,-171 53,-141 73,-215 92,-347 11,-81 32,-187 46,-235 14,-49 35,-147 47,-219 17,-107 19,-137 9,-173 -18,-67 -13,-99 24,-176 44,-89 68,-183 90,-354 l 18,-132 151,-114 c 225,-169 455,-331 696,-491 217,-144 486,-315 496,-315 3,0 3,19 -1,43 -3,23 -10,121 -15,217 -6,107 -23,262 -45,400 -56,355 -57,365 -60,550 -1,96 -5,241 -10,322 -12,210 19,375 83,441 26,27 27,34 30,143 3,89 1,119 -10,132 -25,30 -38,74 -49,177 -6,55 -14,120 -17,145 -4,25 -7,151 -6,280 0,216 2,241 23,305 14,42 26,114 31,180 5,61 13,128 19,150 6,22 11,59 11,82 0,23 9,57 19,75 11,18 24,60 30,93 11,66 31,288 31,347 0,35 3,38 39,49 22,6 47,9 57,5 18,-7 19,5 -7,-221 -14,-121 -14,-404 0,-488 6,-37 16,-127 21,-198 13,-162 34,-275 116,-604 91,-365 105,-450 111,-650 4,-130 1,-192 -11,-264 l -16,-93 24,-52 c 36,-77 45,-134 56,-326 5,-96 14,-192 19,-214 8,-31 6,-44 -10,-70 -25,-42 -25,-119 2,-215 27,-96 22,-157 -16,-207 -28,-37 -29,-40 -33,-203 -4,-152 11,-460 27,-556 6,-39 8,-41 146,-117 253,-141 991,-507 999,-496 13,16 -29,774 -57,1055 -11,112 -11,127 6,175 10,29 27,123 38,208 11,85 28,191 39,235 25,102 40,413 39,840 0,457 23,650 107,920 22,67 27,110 33,265 8,168 20,241 40,239 11,-1 168,-253 210,-338 49,-96 81,-211 81,-286 0,-45 7,-64 51,-136 136,-226 237,-461 417,-974 63,-181 70,-209 75,-300 12,-209 70,-380 192,-565 71,-108 70,-106 69,-220 -1,-86 -7,-124 -33,-213 -51,-176 -56,-224 -38,-357 27,-204 11,-384 -44,-509 -12,-27 -27,-106 -39,-195 -11,-83 -26,-185 -34,-226 -8,-41 -11,-78 -7,-82 9,-11 517,-178 731,-242 157,-46 513,-146 522,-146 2,0 -1,73 -6,162 -5,90 -9,305 -10,478 -1,294 1,322 22,419 13,58 38,143 56,190 73,192 88,345 91,981 l 3,515 -60,310 c -138,721 -219,1018 -379,1393 -103,240 -129,328 -136,462 -5,86 -10,111 -29,140 -34,53 -45,108 -54,279 -4,86 -12,168 -18,182 -9,22 -2,39 65,145 75,120 151,208 211,246 52,32 114,22 206,-36 102,-63 129,-67 211,-27 84,41 141,106 238,270 71,119 76,131 66,159 -10,28 -5,40 62,154 145,244 214,439 226,637 5,97 10,114 51,206 132,295 193,551 195,811 l 1,142 -71,108 c -146,224 -236,423 -408,894 -141,390 -202,537 -289,705 -92,178 -247,414 -317,484 -145,144 -333,224 -559,238 -126,7 -140,15 -140,84 0,26 -5,51 -11,54 -6,4 -8,22 -4,44 6,35 3,39 -54,92 -71,65 -78,84 -26,75 52,-10 54,12 8,86 -49,81 -63,114 -63,149 0,33 6,36 30,14 13,-12 19,-13 34,-2 16,12 17,26 7,202 -6,105 -11,231 -11,282 0,253 -63,492 -166,634 -30,41 -32,48 -20,65 13,16 5,31 -71,144 -161,235 -244,325 -349,378 -77,39 -168,60 -188,43 -25,-21 -76,-31 -104,-20 -15,6 -56,30 -92,55 -83,56 -119,62 -207,36 -140,-43 -271,-160 -373,-332 -46,-78 -66,-101 -121,-141 -63,-46 -89,-80 -89,-118 0,-10 -21,-49 -46,-87 -72,-108 -111,-194 -129,-285 -15,-75 -22,-89 -60,-129 -69,-73 -80,-105 -45,-140 19,-19 19,-23 6,-72 -22,-84 -28,-187 -16,-267 10,-71 9,-77 -15,-122 -14,-27 -25,-62 -25,-79 0,-26 3,-30 28,-30 42,0 92,-61 92,-112 0,-27 -48,-78 -73,-78 -24,0 -120,-44 -135,-63 -10,-12 -11,-21 -2,-36 9,-18 7,-25 -15,-47 -45,-45 -31,-93 40,-140 23,-15 43,-16 165,-10 132,7 140,6 159,-13 12,-12 21,-27 21,-35 0,-8 3,-21 6,-30 13,-33 -118,-119 -241,-159 -27,-9 -112,-30 -188,-45 l -139,-29 -9,26 c -6,14 -16,53 -24,86 -7,33 -36,116 -65,185 -28,69 -69,179 -91,244 -22,66 -49,130 -59,143 -10,13 -33,68 -51,121 -17,53 -54,144 -81,202 -70,147 -157,231 -413,402 -104,69 -212,145 -239,169 -40,35 -75,52 -195,95 -202,72 -391,157 -486,219 -106,68 -211,174 -243,243 -33,72 -27,119 35,270 34,84 48,135 51,180 4,61 6,64 42,87 33,21 39,31 48,77 5,29 22,102 38,161 26,99 27,112 15,160 -7,29 -16,97 -20,152 -9,115 -26,163 -103,302 -31,54 -59,109 -63,123 -4,13 -40,59 -79,101 -39,42 -111,119 -159,172 -68,75 -102,103 -152,128 l -63,31 -89,-12 c -90,-12 -210,-3 -254,20 -20,11 -24,11 -129,-2 z m 5741,-5799 c 21,-54 66,-186 100,-296 133,-433 180,-571 200,-589 14,-13 36,-18 72,-19 29,0 55,-4 59,-10 11,-15 9,-135 -3,-180 -6,-22 -38,-98 -72,-170 -55,-116 -62,-138 -65,-204 -3,-41 1,-92 8,-113 10,-37 10,-41 -9,-55 -29,-20 -51,-66 -73,-153 -21,-84 -39,-117 -71,-129 -23,-10 -60,-47 -120,-123 -45,-56 -84,-86 -125,-94 l -29,-6 -6,204 c -6,238 -20,308 -92,444 -67,127 -64,163 31,384 35,83 43,173 19,221 -10,19 -35,50 -56,70 l -38,35 34,160 c 19,87 54,301 79,474 25,173 49,326 52,340 5,23 9,20 36,-35 17,-33 48,-103 69,-156 z M 3675,8678 c 24,-37 36,-68 38,-100 3,-37 14,-61 55,-115 l 51,-69 -9,-101 c -10,-115 -28,-160 -67,-169 -38,-10 -52,3 -105,92 -53,88 -64,148 -30,159 48,15 54,100 17,241 -14,53 -22,100 -19,105 12,21 36,6 69,-43 z m 3874,-750 c -4,-29 -8,-98 -8,-153 l -1,-101 -42,-41 c -24,-22 -67,-59 -96,-82 -54,-41 -181,-116 -186,-110 -1,2 -8,23 -15,46 -11,39 -9,47 15,95 15,29 53,91 84,138 31,47 72,111 89,142 l 33,57 43,-6 c 43,-5 45,-4 66,31 11,20 22,36 23,36 1,0 -1,-24 -5,-52 z"
         id="path126" />
      <path
         d="m 24220,14864 c -46,-17 -84,-24 -130,-23 -36,0 -71,0 -78,0 -7,-1 -31,-18 -55,-40 -23,-21 -58,-43 -77,-50 -19,-6 -64,-36 -100,-66 -80,-67 -71,-57 -125,-135 -87,-126 -99,-151 -103,-212 -3,-32 -9,-61 -15,-65 -5,-3 -26,-6 -46,-7 -32,-1 -36,-4 -39,-31 -2,-16 -9,-33 -15,-38 -12,-7 10,-31 36,-40 9,-3 29,-104 27,-137 0,-8 0,-37 1,-65 1,-27 1,-68 0,-90 0,-22 -1,-61 -1,-87 0,-44 -2,-47 -34,-58 -38,-12 -70,-43 -85,-83 -9,-24 -5,-41 28,-120 22,-51 54,-144 71,-207 49,-179 60,-209 80,-215 61,-19 98,-79 125,-199 16,-74 16,-82 0,-131 -9,-30 -22,-89 -29,-132 -15,-92 -31,-125 -83,-174 -75,-70 -128,-92 -344,-138 -76,-16 -166,-41 -201,-55 -42,-17 -84,-26 -120,-26 -31,0 -121,-13 -201,-30 -81,-16 -173,-30 -206,-30 -57,0 -63,-3 -118,-47 -32,-27 -66,-54 -75,-62 -16,-12 -25,-6 -80,50 -63,65 -65,87 -3,49 35,-22 65,-21 65,1 0,6 -13,26 -30,45 -17,20 -38,63 -50,105 -25,81 -61,126 -110,136 -30,5 -49,27 -37,40 3,3 27,9 53,14 87,16 116,71 45,83 -49,7 -55,17 -52,77 2,56 -13,90 -76,172 -49,63 -48,86 0,68 20,-8 37,-30 62,-84 24,-51 43,-78 61,-86 34,-15 39,-9 21,26 -8,15 -25,60 -37,98 -46,140 -84,194 -155,218 -30,10 -45,23 -59,52 -11,21 -15,40 -10,42 24,8 74,44 74,53 0,6 -12,15 -27,21 -44,16 -72,48 -110,123 -19,38 -63,98 -99,137 -68,73 -76,94 -49,145 16,32 19,72 6,92 -6,11 -17,11 -46,3 -25,-7 -44,-7 -56,0 -30,16 -65,69 -99,151 -33,82 -78,132 -127,144 -15,4 -46,22 -69,39 -42,32 -102,48 -186,49 -37,0 -38,1 -53,53 -9,30 -22,56 -30,60 -8,3 -31,-5 -51,-16 -31,-18 -42,-20 -67,-11 -57,19 -99,12 -195,-37 -66,-33 -106,-47 -140,-48 -26,-1 -59,-7 -73,-13 -15,-6 -44,-14 -65,-17 -65,-11 -107,-26 -139,-50 -17,-12 -45,-26 -64,-30 -60,-13 -116,-83 -154,-195 -31,-91 -65,-162 -86,-176 -17,-12 -21,-25 -21,-73 0,-63 -11,-81 -50,-81 -30,0 -103,-49 -119,-79 -15,-27 -13,-86 4,-151 27,-100 19,-132 -43,-164 -49,-25 -36,-41 33,-39 l 58,1 -52,-45 c -55,-48 -91,-106 -91,-148 0,-14 14,-44 30,-67 37,-51 39,-94 5,-144 -33,-48 -21,-63 38,-47 28,8 45,8 52,2 16,-16 10,-168 -8,-216 l -16,-43 h 25 c 61,0 89,39 89,124 0,44 4,61 17,69 23,15 56,-15 64,-59 10,-56 -12,-99 -74,-147 -75,-57 -83,-75 -76,-164 8,-83 -4,-98 -51,-67 -60,39 -54,-40 7,-91 19,-16 42,-25 63,-25 51,0 63,-8 106,-72 38,-57 39,-62 27,-95 -10,-27 -10,-36 0,-42 15,-9 60,-3 68,10 10,17 34,9 34,-11 0,-11 -13,-46 -30,-77 l -30,-58 21,-99 c 23,-112 20,-152 -16,-189 -42,-42 -8,-75 47,-46 28,15 32,6 18,-45 -9,-33 -10,-53 -2,-76 15,-43 1,-76 -36,-83 -41,-8 -58,-29 -79,-93 -16,-51 -50,-94 -85,-107 -25,-9 18,-39 57,-39 27,0 45,8 66,28 25,24 32,26 40,14 19,-28 3,-98 -38,-167 -48,-81 -56,-111 -42,-151 9,-26 6,-36 -21,-78 -17,-27 -43,-85 -57,-129 -23,-70 -26,-97 -27,-215 0,-102 4,-151 18,-200 10,-36 18,-80 17,-99 -1,-18 5,-44 14,-57 31,-48 15,-257 -45,-569 -48,-248 -59,-322 -75,-513 -17,-204 -25,-249 -96,-542 -54,-222 -79,-362 -79,-453 0,-31 -7,-103 -15,-158 -28,-187 -38,-535 -36,-1223 1,-122 20,-243 67,-422 144,-548 139,-515 136,-869 -2,-316 -16,-554 -38,-682 -8,-46 -35,-147 -60,-225 -51,-160 -69,-240 -79,-348 -4,-41 -17,-102 -30,-135 -36,-91 -43,-133 -60,-350 -11,-142 -23,-226 -42,-299 -25,-96 -26,-111 -23,-296 7,-388 5,-468 -20,-555 -60,-218 -82,-353 -115,-710 -13,-148 -31,-324 -39,-390 -22,-183 -40,-414 -33,-421 8,-9 358,105 656,213 387,140 779,300 1151,470 186,86 803,393 835,417 16,12 17,21 6,112 -76,625 -188,1342 -267,1711 -80,373 -132,674 -174,1008 -42,344 -55,730 -25,755 9,7 15,29 15,52 0,23 10,57 24,81 30,52 52,124 65,202 12,80 77,223 221,485 195,357 246,467 276,595 32,138 15,342 -38,462 -17,39 -18,49 -7,69 7,13 17,24 23,24 25,0 117,-94 161,-166 53,-85 77,-143 94,-224 13,-65 28,-320 41,-690 8,-259 27,-520 55,-770 8,-69 17,-177 20,-240 22,-405 85,-655 348,-1393 l 85,-238 -9,-79 c -5,-46 -24,-120 -45,-177 -96,-261 -100,-334 -27,-444 41,-62 48,-140 28,-322 -16,-145 -16,-280 0,-295 8,-8 40,12 300,183 245,162 510,349 741,523 140,106 141,107 137,142 -3,19 4,71 14,115 17,75 18,139 18,1008 0,810 2,924 14,895 8,-19 18,-90 22,-163 8,-151 18,-209 65,-400 20,-77 46,-201 59,-275 13,-74 39,-180 59,-235 47,-135 68,-270 68,-440 0,-129 14,-222 37,-247 8,-9 239,185 486,406 237,212 604,565 769,740 l 139,147 -22,224 c -28,293 -35,432 -24,529 8,68 7,87 -9,128 -23,62 -44,197 -57,368 -8,104 -17,156 -41,229 -32,97 -33,125 -4,179 26,50 12,102 -38,150 -23,21 -24,26 -16,85 5,38 5,107 -2,179 -14,157 -14,151 9,138 11,-5 34,-10 52,-10 27,0 45,12 109,78 42,42 89,93 104,112 l 28,35 -6,-35 c -3,-19 -11,-107 -17,-196 -19,-248 5,-528 76,-879 35,-171 119,-498 151,-588 14,-40 42,-120 62,-179 20,-60 39,-108 42,-107 6,0 185,212 319,378 1238,1530 2140,3233 2706,5114 63,210 63,212 4,310 -16,26 -29,53 -29,60 0,7 -13,26 -30,42 -17,16 -30,39 -30,52 0,13 -10,37 -22,53 -17,24 -19,32 -9,44 18,22 3,43 -89,126 -75,68 -80,75 -74,104 5,29 2,35 -33,57 -21,14 -73,42 -115,62 -70,34 -78,41 -78,66 0,22 -9,34 -40,55 -40,26 -43,32 -41,71 1,22 -65,75 -94,75 -22,0 -14,39 17,80 18,25 20,36 13,82 -5,29 -9,78 -11,108 -1,45 -7,61 -35,94 -18,21 -47,47 -65,58 -27,16 -40,38 -79,136 -26,64 -65,150 -87,191 -29,53 -37,76 -29,84 21,21 11,39 -59,114 -66,71 -70,78 -70,122 0,26 -6,55 -14,66 -7,11 -16,43 -20,70 -12,82 -61,170 -141,254 -44,46 -77,91 -85,115 -9,29 -23,45 -58,65 -41,23 -83,61 -125,111 -9,11 -39,26 -67,34 -28,8 -65,27 -82,41 -47,40 -142,84 -224,105 -68,18 -77,18 -111,3 -70,-29 -143,-33 -219,-12 -122,34 -225,20 -396,-52 -105,-44 -190,-108 -303,-230 -92,-99 -160,-246 -175,-381 -11,-92 -29,-149 -57,-181 -15,-16 -15,-19 -3,-27 8,-6 21,-10 28,-10 8,0 11,-7 8,-17 -17,-53 -26,-138 -26,-233 0,-85 -3,-110 -16,-121 -43,-36 -55,-118 -32,-218 10,-45 9,-55 -13,-105 l -24,-56 -40,6 c -64,10 -120,39 -150,78 -30,40 -46,43 -98,21 -42,-18 -135,-19 -192,-4 -22,6 -95,31 -163,55 -98,35 -138,45 -194,46 -64,1 -76,5 -133,42 -35,23 -81,52 -103,65 -21,12 -46,36 -55,51 -29,49 -22,82 36,163 29,41 70,114 91,163 23,52 55,107 78,132 50,54 63,87 94,226 13,61 38,139 54,172 36,73 37,100 8,181 l -22,62 21,43 c 21,44 73,345 73,428 0,27 8,53 21,72 19,26 21,40 17,118 -4,81 -7,91 -31,114 -15,14 -27,33 -27,43 0,29 -29,63 -53,63 -32,0 -64,25 -72,57 -3,15 -31,71 -61,123 -51,91 -56,96 -98,108 -24,6 -58,24 -77,39 -18,15 -42,26 -53,25 -14,-2 -35,11 -61,38 -39,40 -40,40 -115,40 -42,0 -108,9 -150,20 -96,25 -149,24 -230,-6 z"
         id="path128" />
    </g>
  </g>
</svg>
